<?xml version="1.0" encoding="UTF-8"?>
<svg xmlns="http://www.w3.org/2000/svg" style="stroke-dasharray:none; shape-rendering:auto; font-family:'Arial'; text-rendering:auto; fill-opacity:1; color-interpolation:auto; color-rendering:auto; font-size:12; fill:black; stroke:black; image-rendering:auto; stroke-miterlimit:10; stroke-linecap:square; stroke-linejoin:miter; font-style:normal; stroke-width:1; stroke-dashoffset:0; font-weight:normal; stroke-opacity:1;" contentScriptType="text/ecmascript" preserveAspectRatio="xMidYMid meet" zoomAndPan="magnify" version="1.0" contentStyleType="text/css" xml:xlink="http://www.w3.org/1999/xlink" width="809" height="358"><g sequence="1"><ellipse cx="120" cy="108" rx="17" ry="17" stroke-width="1" style="fill:url(#linearGradient66FF6696FF96B6FFB6_939262346);" stroke="336633" /></g><g sequence="2"><rect x="292" y="74" width="106" height="70" ry="5" rx="5" style="fill:url(#linearGradientF8FBFEEDF5FCDEEDFAD4E7F8E2E5E9_960231685);" stroke="191970" /></g><g componentSequence="2"><text x="345" y="89" text-anchor="middle" style="font-weight:bold;font-size:10px;stroke:none; fill:#333399"><tspan dy="14" x="345">Verifica</tspan><tspan dy="14" x="345">Aprovação</tspan></text></g><g sequence="4"><rect x="586" y="81" width="106" height="56" ry="5" rx="5" style="fill:url(#linearGradientF8FBFEEDF5FCDEEDFAD4E7F8E2E5E9_1023699706);" stroke="191970" /></g><g componentSequence="4"><text x="639" y="98" text-anchor="middle" style="font-weight:bold;font-size:10px;stroke:none; fill:#333399"><tspan dy="14" x="639">Pendente</tspan></text></g><g sequence="6"><rect x="586" y="191" width="106" height="56" ry="5" rx="5" style="fill:url(#linearGradientF8FBFEEDF5FCDEEDFAD4E7F8E2E5E9_2013721406);" stroke="191970" /></g><g componentSequence="6"><text x="639" y="208" text-anchor="middle" style="font-weight:bold;font-size:10px;stroke:none; fill:#333399"><tspan dy="14" x="639">Aprovação</tspan></text></g><g sequence="9"><ellipse cx="344" cy="329" rx="17" ry="17" stroke-width="3" style="fill:url(#linearGradientFF6666FF9696FFB6B6_790711781);" stroke="993333" /></g><g sequence="11"><rect x="586" y="302" width="106" height="56" ry="5" rx="5" style="fill:url(#linearGradientF8FBFEEDF5FCDEEDFAD4E7F8E2E5E9_1236560597);" stroke="191970" /></g><g componentSequence="11"><text x="639" y="319" text-anchor="middle" style="font-weight:bold;font-size:10px;stroke:none; fill:#333399"><tspan dy="14" x="639">Aprovado</tspan></text></g><g sequence="16"><rect x="292" y="191" width="106" height="56" ry="5" rx="5" style="fill:url(#linearGradientF8FBFEEDF5FCDEEDFAD4E7F8E2E5E9_1467583139);" stroke="191970" /></g><g componentSequence="16"><text x="345" y="208" text-anchor="middle" style="font-weight:bold;font-size:10px;stroke:none; fill:#333399"><tspan dy="14" x="345">Concluído</tspan></text></g><g sequence="23"><ellipse cx="761" cy="108" rx="17" ry="17" stroke-width="3" style="fill:url(#linearGradientFF6666FF9696FFB6B6_405343345);" stroke="993333" /></g><g sequence="23"><polygon points=" 752 104 757 99 762 104 767 99 772 104 767 109 772 114 767 119 762 114 757 119 752 114 757 109" style="stroke:none; fill:#993333" /></g><g componentSequence="3"><text x="225" y="108" style="font-size:10px;font-weight:none;stroke:none; fill:#333399" text-anchor="left" /></g><g componentSequence="5"><text x="502" y="109" style="font-size:10px;font-weight:none;stroke:none; fill:#333399" text-anchor="left"><tspan dy="14" x="502">Execução</tspan></text></g><g componentSequence="7"><text x="355" y="167" style="font-size:10px;font-weight:none;stroke:none; fill:#333399" text-anchor="left"><tspan dy="14" x="355">Aprovação</tspan></text></g><g componentSequence="10"><text x="502" y="164" style="font-size:10px;font-weight:none;stroke:none; fill:#333399" text-anchor="left"><tspan dy="14" x="502">Executado</tspan></text></g><g componentSequence="12"><text x="484" y="329" style="font-size:10px;font-weight:none;stroke:none; fill:#333399" text-anchor="left" /></g><g componentSequence="13"><text x="809" y="274" style="font-size:10px;font-weight:none;stroke:none; fill:#333399" text-anchor="left" /></g><g componentSequence="17"><text x="354" y="279" style="font-size:10px;font-weight:none;stroke:none; fill:#333399" text-anchor="left"><tspan dy="14" x="354">Não precisa aprovar</tspan></text></g><g componentSequence="18"><text x="502" y="219" style="font-size:10px;font-weight:none;stroke:none; fill:#333399" text-anchor="left"><tspan dy="14" x="502">Precisa aprovar</tspan></text></g><g componentSequence="19"><text x="649" y="164" style="font-size:10px;font-weight:none;stroke:none; fill:#333399" text-anchor="left"><tspan dy="14" x="649">Reprovar</tspan></text></g><g componentSequence="20"><text x="649" y="274" style="font-size:10px;font-weight:none;stroke:none; fill:#333399" text-anchor="left"><tspan dy="14" x="649">Aprovar</tspan></text></g><g componentSequence="22"><text x="728" y="108" style="font-size:10px;font-weight:none;stroke:none; fill:#333399" text-anchor="left" /></g><path style="fill:none; stroke:#000000;stroke-width:1" d="M137.0 108.0 L291.0 108.0" /><polygon style="fill:#000000; stroke:#000000;" points=" 281 103 291 108 281 113 283 108" /><path style="fill:none; stroke:#000000;stroke-width:1" d="M398.0 109.0 L585.0 109.0" /><polygon style="fill:#000000; stroke:#000000;" points=" 575 104 585 109 575 114 577 109" /><path style="fill:none; stroke:#000000;stroke-width:1" d="M345.0 144.0 L345.0 190.0" /><polygon style="fill:#000000; stroke:#000000;" points=" 350 180 345 190 340 180 345 182" /><path style="fill:none; stroke:#000000;stroke-width:1" d="M585.0 129.0 L398.0 199.0" /><polygon style="fill:#000000; stroke:#000000;" points=" 409 200 398 199 406 191 405 196" /><path style="fill:none; stroke:#000000;stroke-width:1" d="M692.0 108.0 L744.0 108.0" /><polygon style="fill:#000000; stroke:#000000;" points=" 734 103 744 108 734 113 736 108" /><path style="fill:none; stroke:#000000;stroke-width:1" d="M639.0 190.0 L639.0 137.0" /><polygon style="fill:#000000; stroke:#000000;" points=" 634 147 639 137 644 147 639 145" /><path style="fill:none; stroke:#000000;stroke-width:1" d="M639.0 247.0 L639.0 301.0" /><polygon style="fill:#000000; stroke:#000000;" points=" 644 291 639 301 634 291 639 293" /><path style="fill:none; stroke:#000000;stroke-width:1" d="M692.0 329.0 L799.0 329.0 L799.0 218.0 L692.0 218.0" /><polygon style="fill:#000000; stroke:#000000;" points=" 702 223 692 218 702 213 700 218" /><path style="fill:none; stroke:#000000;stroke-width:1" d="M398.0 219.0 L585.0 219.0" /><polygon style="fill:#000000; stroke:#000000;" points=" 575 214 585 219 575 224 577 219" /><path style="fill:none; stroke:#000000;stroke-width:1" d="M585.0 329.0 L361.0 329.0" /><polygon style="fill:#000000; stroke:#000000;" points=" 371 334 361 329 371 324 369 329" /><path style="fill:none; stroke:#000000;stroke-width:1" d="M344.0 247.0 L344.0 312.0" /><polygon style="fill:#000000; stroke:#000000;" points=" 349 302 344 312 339 302 344 304" /><defs><linearGradient xmlns:xlink="http://www.w3.org/1999/xlink" xlink:href="#linearGradient66FF6696FF96B6FFB6" id="linearGradient66FF6696FF96B6FFB6_939262346" x1="0" y1="91.0" x2="0" y2="126.0" gradientUnits="userSpaceOnUse" xlink:type="simple" xlink:actuate="onLoad" xlink:show="other" /><linearGradient id="linearGradient66FF6696FF96B6FFB6"><stop style="stop-color:#66FF66;stop-opacity:1;" offset="0.0" id="stop66FF66" /><stop style="stop-color:#96FF96;stop-opacity:1;" offset="0.5" id="stop96FF96" /><stop style="stop-color:#B6FFB6;stop-opacity:1;" offset="1.0" id="stopB6FFB6" /></linearGradient><linearGradient xmlns:xlink="http://www.w3.org/1999/xlink" xlink:href="#linearGradientF8FBFEEDF5FCDEEDFAD4E7F8E2E5E9" id="linearGradientF8FBFEEDF5FCDEEDFAD4E7F8E2E5E9_960231685" x1="0" y1="74.0" x2="0" y2="180.0" gradientUnits="userSpaceOnUse" xlink:type="simple" xlink:actuate="onLoad" xlink:show="other" /><linearGradient id="linearGradientF8FBFEEDF5FCDEEDFAD4E7F8E2E5E9"><stop style="stop-color:#F8FBFE;stop-opacity:1;" offset="0.0" id="stopF8FBFE" /><stop style="stop-color:#EDF5FC;stop-opacity:1;" offset="0.25" id="stopEDF5FC" /><stop style="stop-color:#DEEDFA;stop-opacity:1;" offset="0.5" id="stopDEEDFA" /><stop style="stop-color:#D4E7F8;stop-opacity:1;" offset="0.75" id="stopD4E7F8" /><stop style="stop-color:#E2E5E9;stop-opacity:1;" offset="1.0" id="stopE2E5E9" /></linearGradient><linearGradient xmlns:xlink="http://www.w3.org/1999/xlink" xlink:href="#linearGradientF8FBFEEDF5FCDEEDFAD4E7F8E2E5E9" id="linearGradientF8FBFEEDF5FCDEEDFAD4E7F8E2E5E9_1023699706" x1="0" y1="81.0" x2="0" y2="187.0" gradientUnits="userSpaceOnUse" xlink:type="simple" xlink:actuate="onLoad" xlink:show="other" /><linearGradient xmlns:xlink="http://www.w3.org/1999/xlink" xlink:href="#linearGradientF8FBFEEDF5FCDEEDFAD4E7F8E2E5E9" id="linearGradientF8FBFEEDF5FCDEEDFAD4E7F8E2E5E9_2013721406" x1="0" y1="191.0" x2="0" y2="297.0" gradientUnits="userSpaceOnUse" xlink:type="simple" xlink:actuate="onLoad" xlink:show="other" /><linearGradient xmlns:xlink="http://www.w3.org/1999/xlink" xlink:href="#linearGradientFF6666FF9696FFB6B6" id="linearGradientFF6666FF9696FFB6B6_790711781" x1="0" y1="312.0" x2="0" y2="347.0" gradientUnits="userSpaceOnUse" xlink:type="simple" xlink:actuate="onLoad" xlink:show="other" /><linearGradient id="linearGradientFF6666FF9696FFB6B6"><stop style="stop-color:#FF6666;stop-opacity:1;" offset="0.0" id="stopFF6666" /><stop style="stop-color:#FF9696;stop-opacity:1;" offset="0.5" id="stopFF9696" /><stop style="stop-color:#FFB6B6;stop-opacity:1;" offset="1.0" id="stopFFB6B6" /></linearGradient><linearGradient xmlns:xlink="http://www.w3.org/1999/xlink" xlink:href="#linearGradientF8FBFEEDF5FCDEEDFAD4E7F8E2E5E9" id="linearGradientF8FBFEEDF5FCDEEDFAD4E7F8E2E5E9_1236560597" x1="0" y1="302.0" x2="0" y2="408.0" gradientUnits="userSpaceOnUse" xlink:type="simple" xlink:actuate="onLoad" xlink:show="other" /><linearGradient xmlns:xlink="http://www.w3.org/1999/xlink" xlink:href="#linearGradientF8FBFEEDF5FCDEEDFAD4E7F8E2E5E9" id="linearGradientF8FBFEEDF5FCDEEDFAD4E7F8E2E5E9_1467583139" x1="0" y1="191.0" x2="0" y2="297.0" gradientUnits="userSpaceOnUse" xlink:type="simple" xlink:actuate="onLoad" xlink:show="other" /><linearGradient xmlns:xlink="http://www.w3.org/1999/xlink" xlink:href="#linearGradientFF6666FF9696FFB6B6" id="linearGradientFF6666FF9696FFB6B6_405343345" x1="0" y1="91.0" x2="0" y2="126.0" gradientUnits="userSpaceOnUse" xlink:type="simple" xlink:actuate="onLoad" xlink:show="other" /></defs></svg>
